<?xml version="1.0" standalone="no"?>
<!DOCTYPE svg PUBLIC "-//W3C//DTD SVG 20010904//EN"
 "http://www.w3.org/TR/2001/REC-SVG-20010904/DTD/svg10.dtd">
<svg version="1.0" xmlns="http://www.w3.org/2000/svg"
 width="16.000000pt" height="16.000000pt" viewBox="0 0 16.000000 16.000000"
 preserveAspectRatio="xMidYMid meet">
<metadata>
Created by potrace 1.11, written by Peter Selinger 2001-2013
</metadata>
<g transform="translate(0.000000,16.000000) scale(0.006154,-0.006154)"
fill="#000000" stroke="none">
<path d="M1244 2574 c-55 -38 -100 -90 -131 -154 -29 -61 -33 -129 -18 -332 8
-110 0 -182 -32 -283 -23 -74 -94 -225 -103 -220 -8 5 -23 71 -25 105 -2 34
18 97 40 132 26 39 20 54 -16 43 -30 -10 -100 -111 -144 -209 -22 -47 -42 -86
-46 -86 -14 0 -121 104 -149 145 -110 160 -93 415 37 549 37 38 52 43 71 24
15 -15 62 -18 87 -5 11 6 47 11 80 13 33 1 65 3 71 3 21 2 22 40 2 66 -35 44
-88 64 -175 66 -43 0 -91 -2 -108 -6 -54 -13 -133 -65 -172 -113 -60 -72 -71
-94 -93 -180 -40 -154 -8 -343 86 -508 25 -45 65 -102 88 -127 38 -42 41 -48
29 -70 -17 -33 -33 -143 -28 -192 4 -38 0 -43 -66 -111 l-70 -70 86 -86 c80
-81 87 -92 129 -196 50 -125 76 -168 142 -244 59 -66 133 -124 202 -155 52
-24 62 -36 41 -49 -18 -11 -49 -87 -49 -122 0 -47 24 -98 65 -137 38 -38 84
-70 89 -64 3 2 -16 30 -40 62 -24 32 -44 66 -45 75 0 10 -2 25 -4 34 -2 10 6
29 17 43 20 26 86 65 110 65 7 0 38 -26 70 -57 l58 -57 64 63 64 63 58 -29
c51 -25 60 -33 68 -66 11 -43 -5 -85 -57 -152 l-32 -40 30 19 c124 77 158 177
96 277 l-30 49 63 29 c88 43 148 92 216 177 60 75 113 175 145 273 14 43 34
71 96 134 44 44 79 84 79 88 0 5 -20 29 -44 54 -52 53 -56 62 -44 95 5 14 10
59 10 101 0 128 -58 225 -150 249 -26 7 -53 14 -60 16 -8 2 -1 21 23 58 80
125 115 231 121 362 5 123 -8 200 -48 279 -72 145 -180 208 -343 203 -93 -2
-161 -39 -179 -96 -9 -28 20 -43 76 -38 25 1 65 -4 90 -12 41 -13 49 -12 82 3
l37 18 35 -34 c41 -39 81 -113 99 -180 13 -49 13 -162 0 -214 -11 -44 -72
-165 -100 -200 l-25 -30 0 28 c0 34 24 82 44 90 17 7 11 37 -7 37 -25 0 -87
-82 -103 -138 l-17 -57 -18 52 c-25 74 -72 168 -118 239 -32 49 -221 271 -304
359 -80 84 -74 162 20 245 25 21 42 44 38 50 -9 15 -18 13 -61 -16z m585 -153
c87 -45 162 -143 191 -251 37 -133 6 -332 -74 -473 -69 -124 -77 -134 -112
-135 -19 -1 -34 0 -34 1 0 1 -7 23 -15 50 -14 47 -14 48 14 80 100 115 144
266 119 412 -14 83 -51 156 -106 212 -25 26 -47 54 -48 61 -4 25 -13 25 -19
-1 -10 -40 -45 -52 -102 -36 -26 7 -69 12 -95 11 -26 -1 -50 3 -52 7 -9 14 34
62 68 77 50 23 210 14 265 -15z m-922 -32 c38 -18 52 -36 53 -63 0 -5 -31 -10
-70 -11 -38 -1 -76 -7 -83 -13 -7 -6 -22 -9 -32 -7 -11 2 -25 4 -31 4 -6 1
-17 15 -25 32 -12 30 -13 30 -20 11 -5 -12 -26 -38 -48 -58 -39 -34 -94 -129
-107 -184 -4 -14 -9 -66 -11 -115 -5 -94 12 -186 44 -249 23 -44 101 -124 163
-166 156 -106 305 -148 506 -144 149 3 203 14 514 102 143 41 259 6 309 -93
22 -43 25 -63 25 -140 0 -50 -5 -98 -10 -108 -9 -15 -15 -12 -52 26 -35 36
-43 51 -48 92 -6 61 -26 93 -69 111 -49 20 -101 17 -196 -11 -287 -86 -388
-104 -574 -100 -153 3 -244 24 -369 85 -203 100 -336 316 -353 572 -14 215 96
398 265 443 62 16 167 8 219 -16z m249 12 c-7 -10 12 -70 28 -90 7 -9 10 -153
11 -443 l0 -429 -60 6 c-91 9 -156 26 -162 42 -3 9 17 61 45 117 92 185 125
319 114 476 -14 201 -5 330 24 330 3 0 3 -4 0 -9z m349 -463 c82 -113 190
-394 161 -417 -11 -9 -170 -51 -193 -51 -10 0 -13 52 -13 260 0 143 2 260 4
260 2 0 21 -23 41 -52z m-788 -544 c14 -38 -73 -184 -100 -167 -16 9 5 166 27
202 8 12 66 -16 73 -35z m1202 1 c16 -8 32 -22 36 -32 9 -21 19 -81 12 -73
-40 45 -95 120 -87 120 6 0 24 -7 39 -15z m-236 -397 c0 -205 -2 -385 -2 -399
-2 -41 -69 -100 -144 -125 -36 -12 -68 -20 -71 -16 -3 3 -6 197 -6 432 l0 427
56 12 c31 7 79 21 107 31 29 9 54 16 57 15 3 -2 4 -171 3 -377z m-598 287 c17
-2 48 -3 70 -4 l40 -1 0 -432 c0 -523 10 -497 -132 -356 l-93 93 0 358 0 358
43 -7 c23 -3 56 -8 72 -9z m-385 -232 l0 -188 -95 95 -95 94 88 92 c48 50 90
92 95 93 4 0 7 -83 7 -186z m1414 29 l29 -31 -84 -86 c-46 -47 -87 -85 -91
-85 -4 0 -8 81 -8 180 l0 180 63 -64 c34 -35 75 -78 91 -94z m-118 -259 c-111
-312 -309 -472 -619 -497 -187 -15 -288 -58 -318 -136 -4 -9 -1 -34 7 -55 17
-51 12 -55 -15 -12 -31 50 -28 112 8 169 16 25 39 53 52 62 53 37 155 65 287
79 163 18 233 47 314 134 74 78 289 293 293 293 2 0 -2 -17 -9 -37z m-1096
-216 c113 -115 206 -214 208 -221 6 -27 -30 -25 -87 3 -145 74 -242 180 -313
344 -21 48 -38 90 -38 93 0 13 38 -24 230 -219z m713 -327 c31 -62 30 -104 -4
-154 -19 -28 -20 -29 -14 -6 24 88 7 124 -75 161 -39 18 -47 25 -39 36 6 7 14
11 18 9 3 -2 15 0 26 5 40 16 59 6 88 -51z"/>
<path d="M1597 2433 c-11 -11 -8 -20 9 -27 21 -8 34 1 27 19 -5 16 -25 20 -36
8z"/>
<path d="M827 2394 c-9 -10 4 -34 19 -34 8 0 14 9 14 20 0 19 -19 27 -33 14z"/>
</g>
</svg>
