<svg xmlns="http://www.w3.org/2000/svg" width="102" height="102" viewBox="0 0 102 102"><path d="M24.7 47.4L8 64.9v29.4c0 0.8 0.7 1.5 1.5 1.5h20.3c0.8 0 1.5-0.7 1.5-1.5V49.2l-4.7-1.7H24.7z"/><path d="M66.1 61.1H45.8c-0.8 0-1.5 0.7-1.5 1.5v31.7c0 0.8 0.7 1.5 1.5 1.5h20.3c0.8 0 1.5-0.7 1.5-1.5V62.6C67.6 61.8 67 61.1 66.1 61.1z"/><path d="M101.7 29.5c-0.8 0.4-1.7 0.6-2.5 0.6 -1.3 0-2.5-0.4-3.5-1.3l-3.7-3.1 -13.4 14.6v53.9c0 0.8 0.7 1.5 1.5 1.5h20.3c0.8 0 1.5-0.7 1.5-1.5v-64.9C101.9 29.4 101.8 29.4 101.7 29.5z"/><path d="M57.8 54.1c1.1 0.4 2.4 0.1 3.2-0.8l30.8-33.6 7.2 6c0.4 0.3 0.8 0.3 1.3 0.1 0.4-0.2 0.6-0.6 0.6-1.1L99.4 7.2c-0.1-0.6-0.6-1.1-1.2-1l-17.5 1.6c-0.5 0-0.8 0.4-1 0.8C79.6 8.7 79.6 8.9 79.6 9c0 0.3 0.2 0.6 0.4 0.8l7.2 6L58 47.8 24.5 35.5c-1.1-0.4-2.4-0.1-3.2 0.7l-20.5 21.3c-1.1 1.2-1.1 3.1 0.1 4.2 0.6 0.6 1.3 0.8 2.1 0.8 0.8 0 1.6-0.3 2.2-0.9l19.1-19.9L57.8 54.1z"/></svg>
