<svg xmlns="http://www.w3.org/2000/svg" width="80" height="80" viewBox="0 0 79.5 79.5"><path d="M2 23.3c0-5.8 4.7-10.5 10.5-10.5 5.8 0 10.5 4.7 10.5 10.5 0 5.8-4.7 10.5-10.5 10.5C6.7 33.8 2 29.1 2 23.3zM48.4 33.2c-1.7-1-3.9-0.5-4.9 1.2l-7 11.5 -9.9-5.5c-4.4-2.7-6.6-4-13.2-4h-1 -1C-1.2 37.8 1 48 1 48l1.5 31.5 22.5-0.2 -0.9-31.3 12 5.7c0.6 0.3 1.1 0.5 1.7 0.5 1.2 0 2.4-0.6 3-1.7l8.8-14.4C50.6 36.4 50.1 34.2 48.4 33.2zM20.1 32.1c-0.8 0.7-1.6 1.2-2.6 1.7v1.7c0.9 0.1 1.8 0.3 2.6 0.5V32.1zM78.7 0H17.5v12.9c0.9 0.4 1.8 1 2.6 1.7V2.6h56.1v38.4H49.1l-1.6 2.6H78.7V0zM36.7 43.5l1.6-2.6h-8.2l4.6 2.6H36.7zM58.3 17.6l-1.2-0.7 -8.6 14.9 1.2 0.7L58.3 17.6z" fill="#010002"/></svg>
