<svg xmlns="http://www.w3.org/2000/svg" width="98" height="98" viewBox="0 0 97.7 97.7"><path d="M12.6 72.4C5.7 72.4 0 78.1 0 85s5.7 12.6 12.6 12.6c7 0 12.6-5.7 12.6-12.6S19.6 72.4 12.6 72.4z"/><path d="M2.1 36.4c-0.5 0-1.1 0.2-1.5 0.6 -0.4 0.4-0.6 0.9-0.6 1.4v16.2c0 1.1 0.8 1.9 1.9 2 21.3 1 38.2 17.8 39.1 39.1 0 1.1 0.9 1.9 2 1.9H59.3c0.5 0 1.1-0.2 1.4-0.6s0.6-0.9 0.6-1.5c-0.5-15.5-6.9-30.2-17.9-41.2C32.3 43.3 17.7 36.9 2.1 36.4z"/><path d="M69.1 28.6C51.1 10.7 27.3 0.5 2.1 0c-0.5 0-1.1 0.2-1.4 0.6C0.3 1 0 1.5 0 2v16.2c0 1.1 0.9 2 2 2 40.6 1 74.5 34.9 75.5 75.5 0 1.1 0.9 1.9 2 1.9h16.2c0.5 0 1.1-0.2 1.4-0.6 0.4-0.4 0.6-0.9 0.6-1.4C97.1 70.3 87 46.5 69.1 28.6z"/></svg>
