<svg xmlns="http://www.w3.org/2000/svg" width="99" height="99" viewBox="0 0 98.7 98.7"><path d="M26.4 56.7c0-5.1 1.7-9.8 4.5-13.7 -3-2.7-6.9-4.3-11.2-4.3 -9.3 0-16.8 7.5-16.8 16.8 0 0 4 35.3 16.8 35.3 5 0 8.6-5.3 11.2-11.7 -3-10-4.2-19.9-4.5-22L26.4 56.7z"/><path d="M19.7 37.6c5.6 0 10.5-3.1 13-7.7 -2.5-3.4-4-7.6-4-12.2 0-2.1 0.3-4.1 0.9-5.9 -2.6-2.4-6.1-3.8-9.9-3.8 -8.2 0-14.8 6.6-14.8 14.8C4.9 30.9 11.6 37.6 19.7 37.6z"/><path d="M79 38.8c-4.3 0-8.2 1.6-11.2 4.3 2.8 3.8 4.5 8.5 4.5 13.7l0 0.3c-0.2 2.1-1.5 12.1-4.5 22 2.6 6.5 6.2 11.7 11.2 11.7 12.8 0 16.8-35.3 16.8-35.3C95.8 46.3 88.3 38.8 79 38.8z"/><path d="M66 29.8c2.5 4.6 7.4 7.7 13 7.7 8.2 0 14.8-6.6 14.8-14.8 0-8.2-6.6-14.8-14.8-14.8 -3.8 0-7.3 1.4-9.9 3.8 0.6 1.9 0.9 3.9 0.9 5.9C70 22.2 68.5 26.4 66 29.8z"/><path d="M49.4 36.8c-11 0-20 8.9-20 20 0 0 4.7 42 20 42s20-42 20-42C69.4 45.7 60.4 36.8 49.4 36.8z"/><circle cx="49.4" cy="17.7" r="17.7"/></svg>
