<?xml version="1.0" standalone="no"?>
<!DOCTYPE svg PUBLIC "-//W3C//DTD SVG 1.1//EN" "http://www.w3.org/Graphics/SVG/1.1/DTD/svg11.dtd">
<svg width="100%" height="100%" viewBox="0 0 200 200" version="1.1" xmlns="http://www.w3.org/2000/svg" xmlns:xlink="http://www.w3.org/1999/xlink" xml:space="preserve" style="fill-rule:evenodd;clip-rule:evenodd;stroke-linejoin:round;stroke-miterlimit:1.41421;">
    <g id="Capa1">
        <path d="M114.983,175.084C114.004,175.146 113.368,175.966 112.744,176.618C115.394,177.633 118.107,178.602 120.446,180.245C122.245,181.621 123.492,183.723 123.805,185.967C123.918,188.451 122.524,190.621 121.796,192.91C123.775,191.683 124.443,189.366 125.503,187.44C126.127,185.47 126.104,183.309 125.588,181.316C124.779,178.466 122.95,176.084 121.471,173.564C119.282,173.961 117.204,174.847 114.983,175.084ZM50.9232,134.788C51.8793,137.158 52.681,139.584 53.6233,141.96C54.6393,144.123 55.4756,146.369 56.6436,148.461C58.5097,151.917 60.7191,155.191 63.2141,158.22C64.4904,159.349 65.3659,160.84 66.61,161.996C68.0591,163.143 69.3999,164.422 70.872,165.539C72.7612,167.025 74.8761,168.184 76.9611,169.366C79.1843,170.622 81.601,171.462 83.9255,172.499C84.6006,171.778 85.2779,171.057 85.9345,170.318C80.5666,164.924 75.2148,159.517 69.8468,154.128C68.8216,153.078 67.7204,152.092 66.8311,150.917C66.2045,150.102 65.5226,149.332 64.7646,148.636C60.127,144.042 55.623,139.317 50.9232,134.788ZM135.349,152.394C133.672,154.108 132.453,156.227 130.659,157.831C128.016,159.962 125.392,162.224 122.227,163.547C120.814,164.086 119.478,164.862 117.958,165.077C115.548,165.717 113.113,166.376 110.602,166.433C109.733,166.371 108.943,166.855 108.07,166.772C104.57,166.594 101.121,167.313 97.6817,167.842C96.0114,168.046 94.4748,168.732 92.899,169.274C90.2887,169.951 88.031,171.488 85.6718,172.734C83.9624,173.596 83.0892,175.39 81.9765,176.849C81.5065,177.519 80.7969,178.028 80.5274,178.828C80.0482,180.095 79.3962,181.316 79.2188,182.678C78.6429,184.873 79.0483,187.262 80.0989,189.255C81.055,191.227 82.2944,193.105 83.9993,194.512C83.5431,193.522 83.0478,192.556 82.5594,191.582C81.7507,190.123 81.3775,188.462 81.1771,186.822C81.4996,185.454 81.7231,183.961 82.663,182.855C84.0845,180.957 86.0382,179.459 88.2544,178.612C90.7426,177.478 93.4035,176.769 96.0898,176.289C98.0019,175.847 99.9187,175.361 101.891,175.314C103.289,174.84 104.764,175.149 106.192,174.99C107.607,174.479 109.125,174.844 110.576,174.557C113.053,174.14 115.532,173.699 117.967,173.066C121.655,172.142 125.185,170.665 128.541,168.894C131.774,167.182 134.81,165.091 137.496,162.604C138.4,161.911 139.27,161.167 139.95,160.245C140.726,159.169 141.768,158.324 142.57,157.269C144.855,154.338 147.009,151.286 148.702,147.971C150.432,144.66 151.838,141.195 153.183,137.714C153.801,136.198 154.082,134.569 154.697,133.051C148.136,139.386 141.835,145.98 135.349,152.394ZM150.661,104.55C150.656,114.164 150.691,123.778 150.644,133.392C155.448,128.597 160.18,123.732 165.025,118.979C160.219,114.187 155.471,109.337 150.661,104.55ZM51.5706,106.17C47.4052,110.397 43.2008,114.586 39.04,118.815C44.0301,123.766 48.958,128.782 53.9274,133.756C53.9043,123.896 53.9758,114.035 53.8882,104.175C52.992,104.686 52.2686,105.423 51.5706,106.17ZM74.6941,99.9378C74.6826,118.297 74.6987,136.656 74.6895,155.018C79.4515,159.817 84.2273,164.606 88.9732,169.424C89.9501,168.986 90.9338,168.564 91.9221,168.159C91.8668,145.931 91.9014,123.704 91.906,101.479C89.7588,101.315 87.5725,101.785 85.4622,101.184C81.8406,101.186 78.2443,100.615 74.6941,99.9378ZM117.059,97.6939C115.516,98.2237 113.868,98.3182 112.325,98.855C112.336,120.915 112.318,142.974 112.334,165.03C115.159,164.712 117.852,163.775 120.536,162.89C122.277,162.266 123.98,161.399 125.279,160.054C126.821,158.607 127.956,156.789 129.514,155.357C129.509,134.871 129.481,114.385 129.532,93.8995C125.445,95.3877 121.282,96.6525 117.059,97.6939ZM143.629,91.3054C144.189,92.4941 145.283,93.2728 146.129,94.2427C148.025,96.3646 149.513,98.8066 151.377,100.956C151.467,99.2098 151.375,97.4474 150.992,95.7379C150.854,95.7172 150.575,95.6734 150.435,95.6527C150.119,94.3164 149.043,93.3212 147.88,92.683C146.567,91.9665 145.161,91.28 143.629,91.3054ZM47.9651,94.6966C47.7946,95.8554 47.4352,96.9889 47.4697,98.1754C47.5043,99.0393 47.0366,99.8249 47.0965,100.693C47.1772,102.682 46.8477,104.739 47.5135,106.66C49.3243,104.787 51.2135,102.986 53.0012,101.09C53.3791,100.429 53.3652,99.6014 53.7408,98.9287C54.372,97.7538 54.683,96.4498 55.1415,95.2057C55.4594,94.3833 55.3028,93.4825 55.3535,92.6231C54.842,92.137 54.3974,91.5496 53.7454,91.2454C52.5082,90.6257 51.3287,89.9023 50.1929,89.1167C49.0847,90.7985 48.2784,92.7015 47.9651,94.6966ZM112.355,46.4659C112.299,60.0171 112.336,73.5682 112.334,87.1216C114.034,87.1101 115.635,86.5042 117.287,86.2001C121.227,85.3799 125.037,84.0828 128.899,82.9839C128.553,81.1178 128.327,79.2264 127.758,77.4133C126.687,73.0083 125.323,68.6702 123.535,64.5049C121.849,61.2289 120.335,57.8538 118.377,54.7228C116.522,51.8684 114.659,48.9863 112.355,46.4659ZM49.6791,15.9678C46.0529,17.5252 42.8805,20.0433 40.3578,23.0659C39.5077,24.0681 38.7843,25.1693 37.9734,26.2037C37.3214,27.123 36.6095,28.0284 36.2294,29.102C35.5774,30.8483 34.5821,32.4771 34.225,34.3224C34.0684,35.2025 33.4279,35.8983 33.2666,36.7737C32.8796,38.7089 32.3658,40.6441 32.3958,42.6347C32.458,46.3945 32.2391,50.1705 32.6884,53.9119C32.7206,54.5616 33.0823,55.1283 33.1653,55.7665C33.5915,58.5103 34.3564,61.1828 35.1489,63.8391C35.3723,64.6616 35.893,65.3596 36.1257,66.1798C36.7385,68.1403 37.7153,69.9558 38.6369,71.7827C39.5699,74.0151 41.1388,75.8881 42.3737,77.95C43.1386,79.1089 43.7168,80.399 44.6453,81.445C45.6313,82.5946 46.8086,83.5691 47.76,84.7533C48.7991,86.0342 50.2804,86.8359 51.4392,87.9924C53.2316,89.771 55.5124,90.9114 57.6665,92.1808C60.2583,93.4041 62.7303,94.927 65.488,95.7725C67.0961,96.2954 68.6742,96.8967 70.2754,97.4381C75.1802,98.7582 80.1864,99.8134 85.2733,100.051C87.8858,100.078 90.4984,99.947 93.1086,100.051C93.8666,100.085 94.6383,100.083 95.3733,99.8687C96.8915,99.4309 98.5226,99.9401 100.032,99.4494C101.043,99.2397 102.105,99.3618 103.1,99.0347C107.719,98.3919 112.369,97.7584 116.85,96.4291C118.753,95.9476 120.651,95.4384 122.538,94.8901C124.871,93.9847 127.32,93.4295 129.68,92.5886C132.147,91.879 134.578,91.022 137.112,90.5543C138.865,90.2479 140.625,89.7871 142.42,89.9369C143.973,90.0498 145.493,90.4322 146.981,90.8699C148.599,91.3445 149.847,92.5425 151.022,93.6921C151.421,94.0538 151.587,94.5814 151.783,95.0675C152.736,97.6063 152.907,100.364 152.78,103.053C155.123,105.474 157.533,107.828 159.885,110.243C160.636,109.091 160.479,107.633 160.786,106.338C161.037,105.393 161.044,104.421 161.065,103.453C161.862,99.8756 161.217,96.1872 160.468,92.6577C160.035,91.098 159.316,89.6351 158.57,88.2067C156.634,84.6841 152.941,82.3941 149.08,81.5486C146.889,80.9612 144.615,81.4104 142.385,81.2445C136.545,81.1961 131.159,83.7327 125.648,85.297C123.436,86.0411 121.125,86.4397 118.891,87.1078C115.366,88.1537 111.719,88.6444 108.113,89.3102C106.895,89.5867 105.63,89.5153 104.42,89.8424C102.633,89.8908 100.882,90.3746 99.087,90.3078C95.5553,90.2709 92.0235,90.3239 88.4917,90.2917C87.4112,90.287 86.3584,90.006 85.2825,89.9415C83.398,89.8793 81.5825,89.2918 79.7118,89.0891C76.6063,88.2873 73.4362,87.6814 70.4551,86.4719C65.1079,84.4169 59.968,81.7422 55.4456,78.2081C50.8218,74.9205 46.7602,70.7275 44.0393,65.7213C43.2169,63.6271 42.164,61.5721 41.9843,59.2936C41.1849,57.2087 41.1411,54.9555 40.7149,52.7922C40.6205,49.9447 40.5928,47.0879 40.8301,44.245C41.0052,41.9251 41.5167,39.6512 41.9866,37.3773C42.0995,36.6816 42.5879,36.1402 42.8805,35.5181C43.7399,33.7995 44.1499,31.8573 45.2972,30.2861C45.7718,29.6664 45.9561,28.8693 46.4952,28.2933C47.0666,27.6321 47.5872,26.9318 48.1125,26.236C49.5755,24.1556 51.7802,22.8056 53.7477,21.262C53.4666,20.1332 53.2593,18.737 54.2522,17.8846C54.5978,18.8361 54.789,19.8313 55.0747,20.7967C55.4433,21.5339 55.9755,22.1905 56.5514,22.7756C57.0468,23.0636 57.572,23.3009 58.1088,23.4991C59.1663,23.6004 60.233,23.5313 61.295,23.5543C61.5876,23.2963 61.8249,22.9415 62.2212,22.8379C65.8105,21.7182 69.6971,21.3196 73.3855,22.179C73.7334,21.8311 74.0767,21.4832 74.4222,21.133C74.2656,20.4119 74.132,19.6355 73.6389,19.055C71.4227,16.5783 68.3609,14.6639 64.9696,14.5118C63.7578,14.4519 62.5161,14.7169 61.3296,14.392C60.279,14.058 59.1617,14.1916 58.0789,14.1455C55.1807,14.0833 52.3423,14.8896 49.6791,15.9678ZM87.7499,15.9241C87.3398,17.6197 86.5427,19.2162 86.386,20.9741C86.1948,22.7526 86.1487,24.545 85.9114,26.3212C86.4275,28.3187 85.893,30.4198 86.4943,32.3987C87.0357,34.7118 87.3076,37.087 87.3053,39.4646C87.8536,41.8283 87.5495,44.2589 87.5126,46.6548C87.0242,48.0579 87.4343,49.5623 87.015,50.9745C86.568,54.5178 85.6373,57.9758 84.7042,61.4178C83.7873,64.1409 82.8312,66.8548 81.7576,69.5226C81.1287,70.7345 80.5573,71.9739 80.1012,73.2618C78.6014,76.4848 76.7376,79.5213 75.0834,82.6637C74.3831,83.7327 74.8139,85.0689 74.6618,86.2623C76.4934,87.2898 78.6083,87.6008 80.6403,88.0109C82.7206,88.2574 84.778,88.7158 86.8767,88.808C88.5631,88.808 90.2058,89.3287 91.8991,89.2342C91.8853,67.1658 91.9175,45.0975 91.883,23.0268C90.738,21.8818 89.8326,20.4718 89.4225,18.8937C89.017,17.2603 88.6023,15.6015 88.6553,13.9059C88.2913,14.5487 87.9019,15.1914 87.7499,15.9241ZM121.667,12.0421C119.994,12.4407 118.633,13.5373 117.257,14.5072C116.05,15.4034 114.848,16.6198 114.755,18.2095C114.951,18.6495 115.435,18.9167 115.751,19.2807C117.997,18.7854 120.315,18.7647 122.6,18.9144C124.081,19.2116 125.553,19.5595 127.007,19.9742C127.39,20.0802 127.618,20.4373 127.908,20.6861C128.889,20.6746 129.875,20.7322 130.855,20.6354C132.184,20.4257 133.262,19.4305 133.877,18.274C134.446,17.3271 134.405,16.1614 134.942,15.1984C136.107,15.8826 135.527,17.3501 135.469,18.426C136.679,19.2992 137.844,20.2322 139.029,21.1376C140.185,21.9993 140.876,23.2986 141.855,24.3307C142.673,25.4343 143.408,26.6 144.125,27.7727C145.065,29.284 145.491,31.0303 146.251,32.6268C147.136,34.5482 147.255,36.6793 147.693,38.7205C147.859,39.7526 147.659,40.8285 147.993,41.8352C148.152,42.3974 148.133,42.9894 148.147,43.57C148.191,47.111 147.507,50.6013 146.871,54.0686C145.864,57.0059 145.002,60.0516 143.256,62.6595C141.51,66.2143 138.969,69.2923 136.289,72.179C136.798,74.9919 137.844,77.6667 138.971,80.2838C140.432,80.0511 141.894,79.724 143.385,79.8092C144.519,78.1666 145.532,76.4457 146.716,74.8376C150.333,69.0665 153.497,62.8853 154.973,56.195C155.674,54.0432 155.89,51.7855 156.31,49.5738C156.471,48.6592 156.328,47.7307 156.404,46.8115C156.865,44.7841 156.839,42.6577 156.63,40.5981C156.296,39.2135 156.498,37.7736 156.146,36.3959C155.964,34.1842 155.033,32.1453 154.513,30.0097C153.964,28.4753 153.285,26.9893 152.617,25.5034C150.043,21.1768 146.647,17.2349 142.348,14.5556C138.211,11.9569 133.174,10.8004 128.32,11.4086C126.122,11.8325 123.835,11.3694 121.667,12.0421ZM95.6589,1.90066C96.9583,1.01368 98.3222,0.00690417 99.9671,-1.94289e-16C100.317,0.649667 100.568,1.34773 100.571,2.09417C96.9168,4.55466 93.544,7.80767 92.0097,12.0283C91.6342,12.9752 91.436,13.9958 91.5374,15.0187C91.6779,16.5046 91.7586,18.0943 92.6363,19.366C93.5279,20.6815 94.4172,22.0246 95.5898,23.1143C96.1819,23.6718 96.7256,24.28 97.2071,24.9366C98.2139,26.3028 99.5778,27.3534 100.603,28.7057C101.377,29.7539 102.356,30.6248 103.19,31.6247C104.287,32.8434 105.264,34.1635 106.351,35.3868C108.841,37.8934 111.06,40.6488 113.438,43.259C115.493,45.5513 117.227,48.1016 118.997,50.6128C119.879,51.8223 120.517,53.1862 121.409,54.3865C122.035,55.2136 122.363,56.2088 122.879,57.1004C123.284,57.8376 123.828,58.4942 124.162,59.2729C125.21,61.6735 126.413,64.0119 127.272,66.4908C127.869,68.2279 128.753,69.8774 129.078,71.7021C129.196,72.3587 129.449,72.9761 129.721,73.5843C130.352,71.99 130.438,70.2414 131.131,68.6633C131.988,65.1891 134.167,62.2034 136.727,59.7705C137.501,59.0471 138.51,58.3306 139.632,58.5587C140.683,58.9573 140.593,60.6091 139.683,61.1229C138.817,61.6113 138.056,62.2794 137.556,63.1456C136.985,64.1386 136.262,65.1062 136.121,66.2719C135.893,67.6105 135.914,68.9743 136.02,70.3221C137.213,69.1356 138.317,67.8547 139.293,66.4793C140.609,64.5349 142.012,62.625 142.92,60.4409C144.085,57.6441 145.332,54.845 145.912,51.8523C146.438,50.053 146.544,48.1754 146.675,46.3162C146.889,42.6485 146.7,38.9186 145.726,35.3615C145.097,32.9263 144.026,30.634 142.839,28.4246C142.298,27.0608 141.36,25.9227 140.455,24.7938C138.817,22.7964 136.911,21.0017 134.732,19.6056C133.905,20.3635 133.085,21.163 132.099,21.7113C130.553,22.2596 128.763,22.3794 127.258,21.6329C123.789,20.0064 119.808,20.071 116.099,20.6515C115.168,20.822 114.378,20.0894 113.813,19.4489C113.5,18.4698 113.016,17.2303 113.76,16.3249C116.331,12.807 120.434,10.1484 124.899,10.1944C126.625,10.0723 128.387,10.5078 130.083,10.0309C130.871,9.78666 131.7,9.92489 132.504,9.98709C135.709,10.3004 138.925,11.0492 141.747,12.648C148.518,16.3341 153.321,22.9784 155.701,30.217C156.503,31.7214 156.466,33.4516 156.915,35.062C157.183,36.048 156.989,37.0916 157.284,38.0731C157.627,39.1467 157.289,40.3147 157.706,41.3676C157.943,41.9274 157.692,42.5195 157.586,43.0816C157.752,43.5447 157.881,44.04 157.722,44.5284C157.21,46.3185 157.667,48.1984 157.321,50.0138C157.081,51.2302 157.13,52.4789 156.927,53.7022C156.517,56.0084 156.072,58.3352 155.181,60.5147C154.833,61.4063 154.653,62.36 154.238,63.2286C153.135,65.5854 152.151,67.9998 150.928,70.3013C149.221,73.582 147.009,76.5539 145.065,79.6894C147.585,79.959 150.089,80.4151 152.508,81.1846C153.833,81.5141 154.966,82.325 155.962,83.2327C156.959,84.1566 157.982,85.0689 158.782,86.1747C160.196,88.1122 161.171,90.3562 161.707,92.6899C162.041,94.116 162.493,95.5398 162.479,97.0212C162.608,101.691 162.539,106.485 160.989,110.948C163.645,113.726 166.469,116.343 169.059,119.189C165.048,123.209 161.069,127.257 157.047,131.263C156.372,131.963 156.111,132.94 155.743,133.818C155.376,135.07 154.907,136.29 154.513,137.534C153.95,139.61 152.934,141.522 152.204,143.54C151.515,145.537 150.368,147.33 149.481,149.24C149.023,150.272 148.336,151.173 147.774,152.147C145.525,155.907 142.606,159.216 139.508,162.296C138.199,163.54 137.063,165.003 135.46,165.892C134.073,166.998 132.67,168.117 131.023,168.813C130.182,169.138 129.488,169.721 128.717,170.17C127.332,170.979 125.86,171.665 124.291,172.034C123.48,172.227 122.787,172.792 122.538,173.603C123.816,174.702 124.48,176.277 125.394,177.653C126.074,178.692 126.512,179.874 126.756,181.09C127.037,182.371 127.528,183.689 127.21,185.014C126.855,186.979 126.673,189.154 125.3,190.721C124.597,191.7 124.019,192.782 123.121,193.609C122.042,194.598 121.096,195.754 119.828,196.514C118.916,197.06 118.239,197.97 117.197,198.293C116.527,198.546 115.926,198.94 115.32,199.318C116.071,197.871 117.22,196.703 118.292,195.501C119.847,193.51 121.275,191.374 122.158,188.993C122.418,188.313 122.321,187.569 122.344,186.859C122.312,186.094 122.464,185.281 122.1,184.574C121.621,183.581 121.418,182.318 120.409,181.698C119.619,181.256 118.819,180.834 118.059,180.341C116.843,179.544 115.444,179.109 114.133,178.503C113.276,178.169 112.334,177.763 111.408,177.939C109.763,179.678 107.994,181.307 106.388,183.081C105.337,184.731 103.741,185.898 102.469,187.359C99.5294,184.286 96.4307,181.367 93.5279,178.254C89.7012,179.029 85.7824,180.625 83.4072,183.873C82.3658,185.343 82.4534,187.294 82.8658,188.965C83.7297,192.176 86.0405,194.674 88.0448,197.222C88.8258,198.118 89.7519,198.91 90.2818,200C89.5469,199.885 88.7221,199.933 88.0978,199.468C85.0314,197.302 81.8936,195.019 79.8501,191.801C79.2326,190.748 78.5645,189.695 78.2489,188.504C77.8296,186.845 77.3159,185.12 77.7121,183.401C77.9909,182.261 78.1614,181.092 78.5553,179.984C79.023,178.678 79.8984,177.584 80.5136,176.353C81.0066,175.214 82.0456,174.471 82.8082,173.527C82.1493,172.854 81.2946,172.43 80.3869,172.211C78.5668,171.764 76.9265,170.81 75.3945,169.758C74.6941,169.274 73.8578,169.055 73.1321,168.617C71.8673,167.915 70.7937,166.934 69.6049,166.12C67.1514,164.38 65.2576,162.012 63.1174,159.93C62.6796,159.517 62.3709,158.996 62.0092,158.522C61.5093,157.87 60.8343,157.375 60.3482,156.711C58.4844,154.002 56.563,151.306 55.1346,148.33C54.5702,147.076 53.9251,145.86 53.3053,144.637C53.1717,143.658 52.5658,142.856 52.2917,141.924C51.847,140.506 51.0591,139.223 50.679,137.783C50.338,136.458 49.8542,135.177 49.3543,133.905C49.0525,133.169 48.6839,132.44 48.1171,131.871C43.8251,127.575 39.5722,123.241 35.2618,118.963C38.7475,115.519 42.141,111.985 45.6497,108.566C45.8317,108.363 46.1151,108.172 46.0575,107.856C46.1358,106.909 45.6935,106.027 45.7165,105.085C45.7304,103.382 45.5253,101.673 45.7304,99.9747C46.152,97.6201 46.0045,95.1573 46.8754,92.8927C47.4214,91.4989 47.7946,90.0014 48.6931,88.7804C48.8912,88.5454 49.1101,88.133 48.7576,87.9187C46.5183,86.1678 44.7213,83.9423 43.0418,81.6707C40.5398,78.4822 38.7498,74.8238 36.8076,71.2874C36.2777,70.2576 36.022,69.101 35.3816,68.1219C34.7733,67.2027 34.6766,66.0784 34.2596,65.0786C32.9418,61.8048 32.2898,58.3237 31.5549,54.8887C31.3499,53.9557 31.4098,52.995 31.2807,52.0527C31.1103,50.7695 30.8691,49.4793 30.9651,48.1777C31.1241,46.2448 30.8092,44.3072 31.0112,42.3789C31.4674,39.5844 31.6977,36.7253 32.6769,34.0483C33.4072,32.1108 33.9601,30.0972 34.9415,28.2634C37.5149,23.8308 40.8601,19.7369 45.1867,16.9124C46.9583,15.825 48.7138,14.6431 50.7274,14.0395C52.8054,13.3323 54.9964,13.1088 57.1574,12.7839C58.0858,12.6503 58.9797,13.0189 59.8966,13.0834C62.0576,13.2125 64.2347,12.9636 66.3888,13.2101C69.0382,13.8207 71.63,15.0486 73.48,17.0852C74.2702,17.9768 75.3668,18.6887 75.7539,19.8636C75.9382,21.1975 75.4659,22.8955 74.0582,23.3654C72.3649,23.969 70.6278,23.1443 68.9115,23.165C67.1053,23.0475 65.4235,23.8792 63.638,23.9598C62.4515,23.9575 61.5646,24.9988 60.3804,25.0173C59.0926,25.0472 57.7517,25.0564 56.533,24.5911C55.5907,24.1027 55.0148,23.0751 53.9527,22.7826C50.9094,25.1071 48.0342,27.8303 46.2971,31.2952C45.6728,32.6683 44.9148,33.9838 44.4356,35.4191C44.3089,35.4513 44.0555,35.5135 43.9288,35.5458C43.309,37.9003 42.6824,40.2594 42.2815,42.6623C42.0488,44.7933 42.0926,46.9428 41.9567,49.0785C42.1295,51.1542 41.9889,53.2645 42.4405,55.308C42.8851,56.794 42.9681,58.3905 43.7399,59.7682C44.5485,62.4384 45.5461,65.0947 47.1196,67.4192C49.1239,70.4211 51.8378,72.8286 54.349,75.3859C55.9179,77.1069 57.8808,78.4016 59.8597,79.5973C60.3274,77.8187 61.3204,76.2429 61.8295,74.4782C64.3706,68.5136 67.2113,62.4407 71.9595,57.8883C72.8856,57.2064 73.7634,56.3378 74.8968,56.0291C75.7769,55.7849 76.2031,56.7733 76.6685,57.317C75.611,59.0287 74.1988,60.5285 73.4708,62.4292C72.8027,64.1616 72.0217,65.8964 71.8765,67.7717C71.4687,71.6445 72.57,75.4688 73.867,79.0766C74.6849,77.8072 75.323,76.4364 76.0257,75.1025C77.1315,73.271 77.9241,71.2759 78.7396,69.3038C79.1797,68.2141 79.8132,67.2119 80.1726,66.0899C80.7417,64.2008 81.5503,62.3969 82.1286,60.5124C83.0547,57.1465 83.7528,53.7207 84.3287,50.2834C84.331,48.7168 84.778,47.1939 84.748,45.6273C84.748,43.9432 84.7134,42.2591 84.7526,40.5727C84.8148,39.7111 84.4301,38.9048 84.4347,38.0477C84.4024,35.3108 83.5915,32.6683 83.3358,29.9544C83.209,28.7333 83.2989,27.5031 83.2666,26.2775C83.2252,23.1857 83.2759,20.0134 84.3195,17.0644C84.7065,15.7167 85.3747,14.4657 85.6811,13.0903C85.893,12.0721 86.7454,11.3878 87.2592,10.5262C89.3994,7.08887 92.3829,4.24596 95.6589,1.90066Z" style="fill-rule:nonzero;"/>
        <path d="M122.66,12.9406C123.291,12.3163 124.279,12.3163 125.118,12.2817C125.422,12.8231 125.878,13.3207 126.026,13.9266C125.74,14.4312 125.399,14.9035 125.06,15.3758C124.203,15.3642 123.339,15.2467 122.621,14.7491C122.637,14.1455 122.609,13.5419 122.66,12.9406Z" style="fill-rule:nonzero;"/>
        <path d="M63.1335,16.7765C63.4284,16.2443 63.7233,15.7098 64.0228,15.1776C64.8775,15.2329 65.7184,15.408 66.5339,15.6683C66.5293,16.3526 66.5316,17.0391 66.5455,17.7234C65.8059,18.0482 64.9927,18.3684 64.1725,18.1726C63.7094,17.8063 63.4583,17.2557 63.1335,16.7765Z" style="fill-rule:nonzero;"/>
    </g>
</svg>
