<svg xmlns="http://www.w3.org/2000/svg" width="100%" height="100%" viewBox="0 0 800 800" stroke-linejoin="round"><path d="m324.8 712.7c5.5 0 11 0 16.4 0 6.8 20.7 14.4 41.1 21 61.9 3.3-5 4.4-10.9 6.4-16.4 5.4-15.1 10.4-30.4 15.8-45.5 5.4 0 10.8 0 16.3 0-10.2 29-20 58.2-30.1 87.2-5.2 0-10.4 0-15.6 0.1-10.2-29.1-20-58.3-30.1-87.3zm161 0c5.9 0 11.7 0 17.6 0 5.9 20.6 12.2 41 18.4 61.5 6.3-20.5 12.6-41 18.6-61.6 5.8 0.1 11.6 0 17.4 0 5.3 29 9.6 58.2 14.8 87.2-5.4 0-10.8 0-16.2 0-3-18.6-6.4-37.2-9.4-55.8-6 18.5-11.2 37.3-17.1 55.8-5.4-0.1-10.9 0-16.3-0.1-6-18.5-10.9-37.4-17.2-55.8-2.8 18.6-6.3 37.2-9.1 55.8-5.4 0-10.7 0-16.1 0 4.6-29.1 9.7-58.1 14.5-87.2zm-239.8 87.2c11-29 21.6-58.2 32.6-87.3 5.8 0 11.6 0 17.4 0 10.9 29.1 21.6 58.2 32.6 87.2-5.6 0-11.3 0-16.9 0-2.5-6.2-4.8-12.5-7-18.9-11.5 0-23.1 0-34.6 0-2.4 6.3-4.5 12.7-7.1 18.9-5.6 0-11.3 0-16.9 0zM413.3 712.7c15.5 0 31 0 46.5 0l0 16.4c-10.1 0-20.1 0-30.2 0 0 5 0 12.5 0 17.5 10 0 20 0 30.1 0 0.1 5.5 0.1 11 0.1 16.5-10.1 0-20.1 0-30.2 0 0 7.6 0 12.7 0 20.3 10.1 0 20.1 0 30.2 0 0 5.5 0 11 0 16.5-15.5 0-31 0-46.5 0 0-29.1 0-58.1 0-87.2zm-125.7 22.4c-4.6 9.4-7.2 19.7-11.2 29.4 7.3 0.1 14.7 0.1 22 0-3.8-9.7-7.2-19.6-10.8-29.4zM384.8 6.7c4.6-3.1 9.3-6.6 15.1-6.7 1.2 2.3 2.1 4.7 2.1 7.3-12.8 8.6-24.6 20-30 34.8-1.3 3.3-2 6.9-1.7 10.5 0.5 5.2 0.8 10.8 3.9 15.2 23.3 28.5 48.6 57 73 83.8 20.8 25.3 48.9 68.3 54.9 99.8 0.4 2.3 1.3 4.5 2.3 6.6 2.2-5.6 2.5-11.7 4.9-17.3 3-12.2 10.7-22.7 19.6-31.2 2.7-2.5 6.3-5 10.2-4.2 3.7 1.4 3.4 7.2 0.2 9-3 1.7-5.7 4.1-7.5 7.1-2 3.5-4.5 6.9-5 11-0.8 4.7-0.7 9.5-0.4 14.2 4.2-4.2 8.1-8.7 11.5-13.5 4.6-6.8 9.5-13.5 12.7-21.2 18-41.6 20.3-88.9-8.6-125-5.7-7-12.4-13.3-20.1-18.2-2.9 2.7-5.8 5.5-9.2 7.4-5.4 1.9-11.7 2.3-17-0.3-12.2-5.7-26.1-5.5-39.1-3.4-3.3 0.6-6-2-8-4.2-1.1-3.4-2.8-7.8-0.2-11 9-12.3 23.4-21.7 39.1-21.5 6.1-0.4 12.2 1.1 18.2-0.6 2.8-0.9 5.7-0.4 8.5-0.2 11.2 1.1 22.5 3.7 32.4 9.3 23.7 12.9 40.6 36.2 48.9 61.6 16.8 41.7 3.1 103-16.7 140.6-6 11.5-13.7 21.9-20.6 32.9 8.8 0.9 17.6 2.5 26.1 5.2 4.6 1.2 8.6 4 12.1 7.2 3.5 3.2 7.1 6.4 9.9 10.3 5 6.8 8.4 14.7 10.3 22.9 1.2 5 2.8 10 2.7 15.2 0.5 16.4 0.2 33.2-5.2 48.8 9.3 9.7 19.2 18.9 28.3 28.9-14.1 14.1-28 28.3-42.1 42.3-2.4 2.5-3.3 5.9-4.6 9-1.3 4.4-2.9 8.7-4.3 13-2 7.3-5.5 14-8.1 21.1-2.4 7-6.4 13.3-9.6 20-1.6 3.6-4 6.8-6 10.2-7.9 13.2-18.1 24.8-29 35.6-4.6 4.4-8.6 9.5-14.2 12.6-4.9 3.9-9.8 7.8-15.6 10.2-2.9 1.1-5.4 3.2-8.1 4.8-4.9 2.8-10 5.2-15.5 6.5-2.8 0.7-5.3 2.7-6.1 5.5 4.5 3.9 6.8 9.4 10 14.2 2.4 3.6 3.9 7.8 4.8 12.1 1 4.5 2.7 9.1 1.6 13.8-1.2 6.9-1.9 14.5-6.7 20-2.5 3.4-4.5 7.2-7.6 10.1-3.8 3.5-7.1 7.5-11.5 10.2-3.2 1.9-5.6 5.1-9.2 6.2-2.4 0.9-4.5 2.3-6.6 3.6 2.6-5.1 6.7-9.2 10.4-13.4 5.5-7 10.5-14.5 13.6-22.8 0.9-2.4 0.6-5 0.7-7.5-0.1-2.7 0.4-5.5-0.9-8-1.7-3.5-2.4-7.9-5.9-10.1-2.8-1.6-5.6-3-8.2-4.8-4.3-2.8-9.2-4.3-13.8-6.4-3-1.2-6.3-2.6-9.6-2-5.8 6.1-12 11.8-17.6 18-3.7 5.8-9.3 9.9-13.7 15-10.3-10.8-21.2-21-31.4-31.9-13.4 2.7-27.2 8.3-35.5 19.7-3.7 5.2-3.3 12-1.9 17.9 3 11.3 11.1 20 18.2 29 2.7 3.1 6 5.9 7.8 9.7-2.6-0.4-5.5-0.2-7.7-1.9-10.8-7.6-21.8-15.6-28.9-26.9-2.2-3.7-4.5-7.4-5.6-11.6-1.5-5.8-3.3-11.9-1.9-17.9 1-4 1.6-8.1 3-12 1.6-4.6 4.7-8.4 6.9-12.7 1.7-4 5.4-6.6 8-9.9-2.3-2.4-5.3-3.8-8.5-4.6-6.4-1.6-12.1-4.9-17.5-8.6-2.5-1.7-5.4-2.5-7.9-4-4.4-2.5-8.2-5.9-12.4-8.8-8.6-6.1-15.2-14.4-22.8-21.7-1.5-1.4-2.6-3.3-3.9-4.9-1.8-2.3-4.1-4-5.8-6.4-6.5-9.5-13.3-19-18.3-29.4-2-4.4-4.2-8.7-6.4-13-0.5-3.4-2.6-6.2-3.6-9.5-1.6-5-4.3-9.5-5.7-14.5-1.2-4.6-2.9-9.1-4.6-13.6-1.1-2.6-2.4-5.1-4.3-7.1-15.1-15.1-30-30.3-45.1-45.3 12.2-12.1 24.1-24.5 36.4-36.5 0.6-0.7 1.6-1.4 1.4-2.5 0.3-3.3-1.3-6.4-1.2-9.7 0-6-0.7-12 0-17.9 1.5-8.3 1-16.9 4-24.8 1.9-4.9 3.2-10.1 6.4-14.4 0.7-0.8 1.5-2.3 0.2-3-7.9-6.1-14.2-13.9-20-21.9-47.6-63.9-68-176.6 7.5-227.1 6.2-3.8 12.4-8 19.4-10.1 7.3-2.5 15-3.3 22.6-4.4 3.3-0.5 6.4 0.8 9.6 1.1 7.6 0.5 15.2-0.4 22.8 0.4 9.3 2.1 18.4 6.4 24.9 13.6 2.8 3.1 6.6 5.6 8 9.7 0.6 4.7-1 10.6-5.9 12.3-5.9 2.1-12-0.8-18.1-0.7-6.3-0.4-12.2 2.5-18.5 2.8-4.2 0-7.3 3.6-11.4 3.7-4.5 0.1-9.2 0.1-13.5-1.5-3.3-1.7-5.3-5.3-9-6.3-61.7 49.5-49.4 133 1.4 184.5 5.5 6 12.4 10.6 19.3 14.8 1.6-6.2 5.1-11.8 6.9-18 8.9-20.9 18.9-42.2 35.5-58.2 3.2-2.4 6.3-5.4 10.3-6.5 3.1-0.9 4.6 2.6 6.2 4.5-3.7 6-8.7 11.3-11.2 17.9-2.3 6.1-5.1 12.2-5.6 18.7-1.4 13.6 2.4 27 7 39.7 2.9-4.5 5.1-9.3 7.6-13.9 3.9-6.4 6.7-13.4 9.5-20.3 25-51.9 21.4-86 16.1-138-3.2-23 1.7-40.3 8.2-59.1 5.7-16.4 22.5-30.2 35-39.2zm139.2 527.8c-5.9 6-10.2 13.4-16.5 19.1-9.3 7.5-18.5 15.4-29.6 20-5 1.9-9.6 4.6-15 5.4-8.5 2.2-17 4.6-25.8 4.8-3-0.2-5.8 1.5-8.9 1.2-12.3-0.6-24.4 1.9-36.4 3.7-5.9 0.7-11.2 3.1-16.8 5-9.2 2.4-17.1 7.8-25.3 12.1-6 3-9.1 9.3-13 14.4-1.6 2.4-4.1 4.1-5.1 6.9-1.7 4.4-4 8.7-4.6 13.5-2 7.7-0.6 16.1 3.1 23.1 3.4 6.9 7.7 13.5 13.7 18.4-1.6-3.5-3.3-6.9-5.1-10.3-2.8-5.1-4.1-10.9-4.8-16.7 1.1-4.8 1.9-10 5.2-13.9 5-6.7 11.8-11.9 19.6-14.9 8.7-4 18.1-6.5 27.5-8.1 6.7-1.6 13.4-3.3 20.3-3.4 4.9-1.7 10.1-0.6 15.1-1.1 5-1.8 10.3-0.5 15.4-1.5 8.7-1.5 17.4-3 25.9-5.2 12.9-3.2 25.3-8.4 37.1-14.6 11.3-6 22-13.3 31.4-22.1 3.2-2.4 6.2-5 8.6-8.3 2.7-3.8 6.4-6.7 9.2-10.4 8-10.3 15.6-21 21.5-32.6 6.1-11.6 11-23.8 15.7-36 2.2-5.3 3.2-11 5.3-16.4-23 22.2-45.1 45.3-67.9 67.8zm-71.4 79.6c-3.4 0.2-5.7 3.1-7.9 5.4 9.3 3.6 18.8 7 27 12.7 6.3 4.8 10.7 12.2 11.8 20.1 0.4 8.7-4.5 16.3-7 24.3 6.9-4.3 9.3-12.4 13-19.2 2.2-6.9 2.1-14.5 0.3-21.5-2.8-10-9.3-18.3-14.4-27.2-7.7 1.4-15 4.5-22.8 5.3zM227.9 472.7c3.4 8.3 6.2 16.8 9.5 25.2 3.6 7.6 6.5 15.5 10.6 22.8 6.5 12.1 14.3 23.6 23 34.2 4.5 4 7.5 9.2 11.9 13.2 5.1 4 9.8 8.5 14.9 12.4 6.6 5.2 14 9.3 21.4 13.4 7.8 4.4 16.3 7.4 24.4 11 2.4-2.5 4.7-5.1 7-7.7-18.8-18.9-37.6-37.9-56.4-56.8-3.6-3.7-7.5-7.1-10.6-11.3-2.2-2.9-4.6-5.6-7.2-8-16.3-16.1-32.1-32.7-48.5-48.6zm83.4-122.2c0 64.4 0 128.8 0 193.2 16.7 16.8 33.5 33.6 50.1 50.5 3.4-1.5 6.9-3 10.3-4.4-0.2-78-0.1-155.9-0.1-233.9-7.5-0.6-15.2 1.1-22.6-1-12.7 0-25.3-2-37.8-4.4zm148.6-7.9c-5.4 1.9-11.2 2.2-16.6 4.1 0 77.4 0 154.7 0 232.1 9.9-1.1 19.4-4.4 28.8-7.5 6.1-2.2 12.1-5.2 16.6-9.9 5.4-5.1 9.4-11.4 14.9-16.5 0-71.8-0.1-143.7 0.1-215.5-14.3 5.2-28.9 9.7-43.7 13.3zm-229.7 29.7c-14.6 14.8-29.4 29.5-43.9 44.4 17.5 17.4 34.8 35 52.2 52.4-0.1-34.6 0.2-69.2-0.1-103.8-3.1 1.8-5.7 4.4-8.1 7zm347.5-5.7c0 33.7 0.1 67.4-0.1 101.2 16.8-16.8 33.4-33.9 50.4-50.5-16.9-16.8-33.5-33.8-50.4-50.6zM223.5 56c-12.7 5.5-23.8 14.3-32.7 24.9-3 3.5-5.5 7.4-8.4 11-38.4 58.1-17.4 127.3 15.4 181.5 2.7 4.1 4.7 8.6 8 12.3 3.5 4 7.6 7.5 10.9 11.6 3.6 4.5 8.8 7.3 12.9 11.4 6.3 6.2 14.3 10.2 21.8 14.7 9.1 4.3 17.8 9.6 27.4 12.6 5.6 1.8 11.2 3.9 16.8 5.8 17.2 4.6 34.8 8.3 52.6 9.2 9.2 0.1 18.3-0.4 27.5 0 2.7 0.1 5.4 0.1 7.9-0.6 5.3-1.5 11 0.3 16.3-1.5 3.5-0.7 7.3-0.3 10.8-1.5 16.2-2.3 32.5-4.5 48.2-9.1 6.7-1.7 13.3-3.5 20-5.4 8.2-3.2 16.8-5.1 25-8.1 8.7-2.5 17.2-5.5 26.1-7.1 6.1-1.1 12.3-2.7 18.6-2.2 5.4 0.4 10.8 1.7 16 3.3 5.7 1.7 10.1 5.9 14.2 9.9 1.4 1.3 2 3.1 2.7 4.8 3.3 8.9 3.9 18.6 3.5 28 8.2 8.5 16.7 16.8 24.9 25.2 2.6-4 2.1-9.2 3.2-13.7 0.9-3.3 0.9-6.7 1-10.1 2.8-12.5 0.5-25.5-2.1-37.9-1.5-5.5-4-10.6-6.7-15.6-6.8-12.4-19.7-20.4-33.3-23.4-7.7-2.1-15.7-0.5-23.5-1.1-20.5-0.2-39.4 8.7-58.7 14.2-7.8 2.6-15.9 4-23.7 6.4-12.4 3.7-25.2 5.4-37.8 7.7-4.3 1-8.7 0.7-13 1.9-6.3 0.2-12.4 1.9-18.7 1.6-12.4-0.1-24.8 0.1-37.2-0.1-3.8 0-7.5-1-11.3-1.2-6.6-0.2-13-2.3-19.5-3-10.9-2.8-22-4.9-32.5-9.2-18.8-7.2-36.8-16.6-52.6-29-59.5-43.2-68.1-126.2-25.7-182.3 5.1-7.3 12.9-12 19.8-17.4-1-4-1.7-8.9 1.8-11.8 1.2 3.3 1.9 6.8 2.9 10.2 1.3 2.6 3.2 4.9 5.2 6.9 1.7 1 3.6 1.8 5.5 2.5 3.7 0.4 7.5 0.1 11.2 0.2 1-0.9 1.9-2.1 3.2-2.5 12.6-3.9 26.2-5.3 39.2-2.3 1.2-1.2 2.4-2.4 3.6-3.7-0.5-2.5-1-5.3-2.7-7.3-7.8-8.7-18.5-15.4-30.4-15.9-4.2-0.2-8.6 0.7-12.8-0.4-3.7-1.2-7.6-0.7-11.4-0.9-10.2-0.2-20.1 2.6-29.5 6.4zm-6 276.1c-0.6 4.1-1.9 8-1.7 12.2 0.1 3-1.5 5.8-1.3 8.8 0.3 7-0.9 14.2 1.5 20.9 6.4-6.6 13-12.9 19.2-19.5 1.3-2.3 1.3-5.2 2.6-7.6 2.2-4.1 3.3-8.7 4.9-13.1 1.1-2.9 0.6-6 0.7-9.1-1.8-1.7-3.4-3.8-5.6-4.8-4.3-2.2-8.5-4.7-12.5-7.5-3.9 5.9-6.7 12.6-7.8 19.6zm335.5-11.9c2 4.2 5.8 6.9 8.8 10.3 6.7 7.4 11.9 16 18.4 23.5 0.3-6.1 0-12.3-1.3-18.3-0.5-0.1-1.5-0.2-2-0.3-1.1-4.7-4.9-8.2-9-10.4-4.6-2.5-9.5-4.9-14.9-4.8zM352.6 113.6c12.2 54-5.1 94.8-22.4 143.3-5.3 11.3-11.8 22-17.6 33-2.5 3.7-0.9 8.4-1.5 12.6 6.4 3.6 13.8 4.7 21 6.1 7.3 0.9 14.5 2.5 21.9 2.8 5.9 0 11.7 1.8 17.6 1.5 0-77.4 0.1-154.8-0.1-232.2-4-4-7.2-9-8.6-14.5-1.4-5.7-2.9-11.5-2.7-17.5-8.7 16.5-12.2 48.5-7.6 64.9zm90.7 49.3c-0.2 47.5-0.1 95.1-0.1 142.6 6 0 11.6-2.2 17.4-3.2 13.8-2.9 27.2-7.4 40.7-11.3-1.2-6.5-2-13.2-4-19.5-10.2-39.1-28-79.7-54-108.5zM476 42.2c-5.9 1.4-10.6 5.2-15.5 8.6-4.2 3.1-8.5 7.4-8.8 13 0.7 1.5 2.4 2.5 3.5 3.8 7.9-1.7 16-1.8 24-1.3 5.2 1 10.4 2.3 15.5 3.7 1.3 0.4 2.1 1.6 3.2 2.5 3.4 0 6.9 0.2 10.3-0.2 4.7-0.7 8.4-4.2 10.6-8.3 2-3.3 1.9-7.4 3.7-10.8 4.1 2.4 2.1 7.5 1.9 11.3 4.2 3.1 8.3 6.3 12.5 9.5 4.1 3 6.5 7.6 9.9 11.2 27.2 37 29.4 96.9 4.9 134.4-6.1 12.5-15 23.3-24.4 33.4 1.8 9.9 5.5 19.2 9.4 28.4 5.1-0.8 10.3-2 15.5-1.7 4-5.8 7.5-11.8 11.7-17.4 33.5-57.2 42.5-97 27.3-157.2-1.9-5.4-4.3-10.6-6.6-15.8-9-15.2-20.9-29-36-38.4-14.5-9.1-32.2-13.2-49.2-11-7.7 1.5-15.7-0.1-23.3 2.2zM270.7 58.8c1-1.9 2.1-3.7 3.1-5.6 3 0.2 5.9 0.8 8.8 1.7 0 2.4 0 4.8 0 7.2-2.6 1.1-5.4 2.3-8.3 1.6-1.6-1.3-2.5-3.2-3.6-4.9zM479.5 45.4c2.2-2.2 5.7-2.2 8.6-2.3 1.1 1.9 2.7 3.6 3.2 5.8-1 1.8-2.2 3.4-3.4 5.1-3 0-6-0.5-8.6-2.2 0.1-2.1 0-4.2 0.1-6.3z"/></svg>
