<svg xmlns="http://www.w3.org/2000/svg" viewBox="0 0 53 53"><path d="M18.6 41.6l-7.9 4.3c-0.5 0.3-0.9 0.6-1.3 0.9C14 50.7 20 53 26.5 53c6.5 0 12.4-2.3 17-6.1 -0.4-0.4-0.9-0.7-1.4-0.9l-8.5-4.2c-1.1-0.5-1.8-1.7-1.8-2.9v-3.3c0.2-0.3 0.5-0.6 0.8-1 1.2-1.6 2-3.4 2.6-5.3 1.1-0.3 1.9-1.3 1.9-2.5v-3.5c0-0.8-0.3-1.5-0.9-2v-5.1c0 0 1.1-8-9.7-8s-9.7 8-9.7 8v5.1c-0.5 0.5-0.9 1.2-0.9 2v3.5c0 0.9 0.5 1.8 1.2 2.2 0.9 3.9 3.2 6.6 3.2 6.6v3.2C20.3 39.9 19.7 41 18.6 41.6z" fill="#E7ECED"/><path d="M27 0C12.3-0.2 0.3 11.4 0 26 -0.1 34.3 3.6 41.8 9.4 46.8c0.4-0.3 0.8-0.6 1.3-0.9l7.9-4.3c1-0.6 1.7-1.7 1.7-2.8v-3.2c0 0-2.3-2.8-3.2-6.6 -0.7-0.5-1.2-1.3-1.2-2.2v-3.5c0-0.8 0.3-1.5 0.9-2v-5.1c0 0-1.1-8 9.8-8s9.8 8 9.8 8v5.1c0.5 0.5 0.9 1.2 0.9 2v3.5c0 1.2-0.8 2.2-1.9 2.5 -0.6 1.9-1.5 3.7-2.6 5.3 -0.3 0.4-0.6 0.8-0.8 1V38.8c0 1.2 0.7 2.3 1.8 2.9l8.5 4.2c0.5 0.3 1 0.6 1.4 0.9 5.7-4.8 9.4-11.9 9.5-19.9C53.2 12.3 41.6 0.3 27 0z" fill="#556080"/></svg>